<?xml version="1.0" encoding="utf-8"?><!--Generator: Adobe Illustrator 26.0.2, SVG Export Plug-In . SVG Version: 6.00 Build 0)--><svg version="1.1" id="Layer_1" xmlns="http://www.w3.org/2000/svg" xmlns:xlink="http://www.w3.org/1999/xlink" x="0px" y="0px" viewBox="0 0 512 512" style="enable-background:new 0 0 512 512;" xml:space="preserve"><style type="text/css">.st0{fill:#38BDF8;}
	.st1{opacity:0.1;}
	.st2{fill:#64748b;}</style><path class="st0" d="M407.7,115.5c-26.2-54.6-82.1-92.3-146.7-92.3c-70.4,0-130.3,44.7-153,107.3C52.4,133.3,8,179.3,8,235.7
	C8,293.9,55.2,341,113.3,341h277.3c62.6,0,113.4-50.8,113.4-113.4C504,170.8,462.2,123.8,407.7,115.5z"/><g class="st1"><path d="M418.5,313.7H141.2c-58.2,0-105.3-47.1-105.3-105.3c0-22.4,7-43.2,18.9-60.2C26.6,167,8,199.2,8,235.7
		C8,293.9,55.2,341,113.3,341h277.3c37.9,0,71.5-18.6,92.1-47.3C464.5,306.3,442.3,313.7,418.5,313.7z"/></g><path class="st2" d="M159.6,371.6L121,410.3c-3.1,3.1-3.1,8.2,0,11.3c1.6,1.6,3.6,2.3,5.7,2.3s4.1-0.8,5.7-2.3L171,383
	c3.1-3.1,3.1-8.2,0-11.3C167.8,368.5,162.8,368.5,159.6,371.6z M159.6,444.4L121,483.1c-3.1,3.1-3.1,8.2,0,11.3
	c1.6,1.6,3.6,2.3,5.7,2.3s4.1-0.8,5.7-2.3l38.6-38.6c3.1-3.1,3.1-8.2,0-11.3C167.8,441.3,162.8,441.3,159.6,444.4z M275.5,371.6
	c-3.1-3.1-8.2-3.1-11.3,0l-38.6,38.6c-3.1,3.1-3.1,8.2,0,11.3c1.6,1.6,3.6,2.3,5.7,2.3s4.1-0.8,5.7-2.3l38.7-38.6
	C278.7,379.8,278.7,374.7,275.5,371.6z M482.3,148.1c-18-20.8-42.5-34.8-69.2-39.8c-13.8-26.9-34.4-49.7-60-66.1
	c-27.5-17.6-59.3-26.9-92.1-26.9c-69.9,0-133,43.1-158.6,107.7C44.6,128.4,0,177,0,235.7C0,298.2,50.8,349,113.3,349h277.3
	c66.9,0,121.4-54.5,121.4-121.4C512,198.4,501.5,170.2,482.3,148.1z M390.6,333H113.3C59.7,333,16,289.3,16,235.7
	c0-51.9,40.6-94.6,92.4-97.2c3.2-0.2,6-2.2,7.1-5.3c22.1-61,80.5-102,145.4-102c29.7,0,58.5,8.4,83.4,24.4
	c24.2,15.5,43.6,37.5,56,63.3c1.1,2.4,3.4,4.1,6,4.5c24.6,3.7,47.3,16.2,63.7,35.2c16.6,19.1,25.7,43.6,25.7,69
	C496,285.7,448.7,333,390.6,333z M279.2,436.7l-38.6,38.6c-3.1,3.1-3.1,8.2,0,11.3c1.6,1.6,3.6,2.3,5.7,2.3s4.1-0.8,5.7-2.3
	l38.7-38.6c3.1-3.1,3.1-8.2,0-11.3C287.4,433.6,282.3,433.6,279.2,436.7z M379.7,371.6L341,410.3c-3.1,3.1-3.1,8.2,0,11.3
	c1.6,1.6,3.6,2.3,5.7,2.3c2.1,0,4.1-0.8,5.7-2.3L391,383c3.1-3.1,3.1-8.2,0-11.3C387.9,368.5,382.8,368.5,379.7,371.6z"/></svg>